<svg width="1676" height="547" viewBox="0 0 1676 547" fill="none" xmlns="http://www.w3.org/2000/svg">
<g filter="url(#filter0_d_309_107)">
<rect x="50" y="46" width="1576" height="447" rx="32" fill="white"/>
<path d="M304.725 355.053H243.227L256.263 313.433H290.271L239.968 168H301.04L376 378H312.66L304.725 355.053ZM226.506 378H166L233.166 177.495L260.939 260.894L226.506 378Z" fill="#403648"/>
<path d="M560.461 180.248L559.821 215.192H561.869C563.746 215.192 565.282 215.704 566.477 216.728C567.757 217.667 568.397 218.861 568.397 220.312C568.397 221.763 567.8 222.957 566.605 223.896C565.41 224.749 563.832 225.176 561.869 225.176H559.821L560.461 265.752C560.461 267.629 559.949 269.208 558.925 270.488C557.901 271.683 556.664 272.28 555.213 272.28C553.762 272.28 552.525 271.683 551.501 270.488C550.477 269.208 549.965 267.629 549.965 265.752L550.605 224.792C538.061 224.536 528.973 224.408 523.341 224.408C517.794 224.408 511.821 224.536 505.421 224.792C505.421 238.616 505.506 248.728 505.677 255.128C505.933 261.528 506.061 265.368 506.061 266.648C506.061 267.928 505.549 269.208 504.525 270.488C503.501 271.683 502.264 272.28 500.813 272.28C499.362 272.28 498.125 271.683 497.101 270.488C496.077 269.208 495.565 267.928 495.565 266.648C495.565 265.368 495.608 262.808 495.693 258.968C496.034 250.179 496.205 238.872 496.205 225.048H493.901C489.805 225.048 487.757 223.469 487.757 220.312C487.757 218.776 488.312 217.581 489.421 216.728C490.53 215.789 492.024 215.32 493.901 215.32H496.205L495.565 180.248C495.565 178.371 496.077 176.835 497.101 175.64C498.125 174.36 499.362 173.72 500.813 173.72C502.264 173.72 503.501 174.36 504.525 175.64C505.549 176.835 506.061 178.371 506.061 180.248L505.421 215.704C513.954 215.875 522.061 215.96 529.741 215.96C537.421 215.96 544.376 215.832 550.605 215.576L549.965 180.248C549.965 178.371 550.477 176.835 551.501 175.64C552.525 174.36 553.762 173.72 555.213 173.72C556.664 173.72 557.901 174.36 558.925 175.64C559.949 176.835 560.461 178.371 560.461 180.248ZM607.685 236.568C613.488 236.568 618.096 235.587 621.509 233.624C625.008 231.661 626.757 229.016 626.757 225.688C626.757 222.36 625.605 219.501 623.301 217.112C621.082 214.637 617.882 213.4 613.701 213.4C608.069 213.4 603.333 215.533 599.493 219.8C595.653 223.981 593.178 228.888 592.069 234.52C596.762 235.885 601.968 236.568 607.685 236.568ZM612.549 205.08C619.461 205.08 625.05 207 629.317 210.84C633.669 214.68 635.845 219.672 635.845 225.816C635.845 231.96 633.157 236.653 627.781 239.896C622.49 243.053 615.962 244.632 608.197 244.632C603.76 244.632 598.341 243.992 591.941 242.712C592.453 248.685 594.672 253.848 598.597 258.2C602.608 262.467 607.045 264.6 611.909 264.6C614.81 264.6 617.498 264.216 619.973 263.448C622.448 262.595 624.325 261.699 625.605 260.76C629.018 258.115 631.237 256.792 632.261 256.792C633.37 256.792 634.224 257.133 634.821 257.816C635.504 258.413 635.845 259.181 635.845 260.12C635.845 262.509 633.37 265.24 628.421 268.312C623.557 271.384 618.266 272.92 612.549 272.92C603.674 272.92 596.634 269.805 591.429 263.576C586.224 257.347 583.408 249.837 582.981 241.048C578.458 239.683 576.197 237.464 576.197 234.392C576.197 233.112 576.538 232.131 577.221 231.448C577.989 230.68 578.885 230.296 579.909 230.296C580.933 230.296 582.213 230.68 583.749 231.448C585.626 223.768 589.168 217.453 594.373 212.504C599.664 207.555 605.722 205.08 612.549 205.08ZM660.685 223L661.325 265.88C661.325 270.147 659.704 272.28 656.461 272.28C653.218 272.28 651.597 270.147 651.597 265.88L652.237 223L651.597 180.12C651.597 175.853 653.218 173.72 656.461 173.72C659.704 173.72 661.325 175.853 661.325 180.12L660.685 223ZM689.31 223L689.95 265.88C689.95 270.147 688.329 272.28 685.086 272.28C681.843 272.28 680.222 270.147 680.222 265.88L680.862 223L680.222 180.12C680.222 175.853 681.843 173.72 685.086 173.72C688.329 173.72 689.95 175.853 689.95 180.12L689.31 223ZM750.063 257.048C754.244 252.013 756.335 245.955 756.335 238.872C756.335 231.789 754.33 225.773 750.319 220.824C746.394 215.875 741.487 213.4 735.599 213.4C729.711 213.4 724.676 215.917 720.495 220.952C716.399 225.987 714.351 232.045 714.351 239.128C714.351 246.211 716.314 252.227 720.239 257.176C724.25 262.125 729.199 264.6 735.087 264.6C740.975 264.6 745.967 262.083 750.063 257.048ZM735.343 205.08C744.132 205.08 751.343 208.365 756.975 214.936C762.607 221.421 765.423 229.4 765.423 238.872C765.423 248.344 762.564 256.408 756.847 263.064C751.13 269.635 743.919 272.92 735.215 272.92C726.511 272.92 719.343 269.677 713.711 263.192C708.079 256.621 705.263 248.6 705.263 239.128C705.263 229.656 708.079 221.635 713.711 215.064C719.428 208.408 726.639 205.08 735.343 205.08ZM787.122 258.2C788.914 258.2 790.279 258.84 791.218 260.12C792.157 261.4 792.626 263.064 792.626 265.112C792.626 267.075 791.986 268.867 790.706 270.488C789.511 272.109 788.018 272.92 786.226 272.92C784.519 272.92 783.197 272.237 782.258 270.872C781.319 269.507 780.85 267.885 780.85 266.008C780.85 264.045 781.447 262.253 782.642 260.632C783.922 259.011 785.415 258.2 787.122 258.2ZM790.962 211.096L791.346 238.232C791.346 242.499 789.81 244.632 786.738 244.632C783.666 244.632 782.13 242.499 782.13 238.232L782.514 211.096C782.514 206.061 782.343 199.789 782.002 192.28C781.746 184.685 781.618 180.632 781.618 180.12C781.618 175.853 783.325 173.72 786.738 173.72C790.151 173.72 791.858 175.853 791.858 180.12C791.858 180.632 791.687 184.685 791.346 192.28C791.09 199.789 790.962 206.061 790.962 211.096ZM896.53 262.552L907.794 261.912C909.757 261.912 911.293 262.381 912.402 263.32C913.597 264.173 914.194 265.325 914.194 266.776C914.194 268.227 913.597 269.421 912.402 270.36C911.207 271.299 909.671 271.768 907.794 271.768L891.282 271L874.386 271.64C870.119 271.64 867.986 270.019 867.986 266.776C867.986 263.533 870.119 261.912 874.386 261.912C875.325 261.912 879.207 262.125 886.034 262.552C886.461 243.352 886.674 230.211 886.674 223.128C886.674 215.96 886.461 202.776 886.034 183.576C878.525 183.917 874.642 184.088 874.386 184.088C870.29 184.088 868.242 182.509 868.242 179.352C868.242 177.816 868.797 176.621 869.906 175.768C871.015 174.829 872.509 174.36 874.386 174.36L891.282 175C894.183 175 897.554 174.872 901.394 174.616C905.234 174.36 907.709 174.232 908.818 174.232C910.013 174.232 911.207 174.744 912.402 175.768C913.682 176.707 914.322 177.901 914.322 179.352C914.322 180.803 913.725 181.997 912.53 182.936C911.335 183.789 910.055 184.216 908.69 184.216C907.41 184.216 903.357 184.003 896.53 183.576C896.103 203.203 895.89 216.472 895.89 223.384C895.89 230.296 896.103 243.352 896.53 262.552ZM929.88 194.84L929.112 185.496C929.112 183.619 929.667 181.869 930.776 180.248C931.971 178.627 933.507 177.816 935.384 177.816C937.347 177.816 938.797 178.499 939.736 179.864C940.675 181.144 941.144 182.595 941.144 184.216C941.144 190.104 939.608 195.907 936.536 201.624C933.549 207.256 930.605 210.072 927.704 210.072C927.021 210.072 926.424 209.859 925.912 209.432C925.4 208.92 925.144 208.365 925.144 207.768C925.144 207.171 925.912 205.549 927.448 202.904C929.069 200.173 929.88 197.485 929.88 194.84ZM1048.63 230.68L1047.99 250.776C1047.99 253.165 1047.99 255 1047.99 256.28C1048.08 257.475 1048.33 258.755 1048.76 260.12C1049.27 261.4 1049.87 262.211 1050.55 262.552C1051.23 262.808 1051.92 262.979 1052.6 263.064C1053.37 263.149 1053.88 263.277 1054.14 263.448C1054.48 263.619 1054.65 263.96 1054.65 264.472C1054.65 266.691 1053.92 268.568 1052.47 270.104C1051.11 271.555 1049.49 272.28 1047.61 272.28C1044.37 272.28 1042.1 271 1040.82 268.44C1039.63 265.88 1039.03 262.125 1039.03 257.176L1039.54 233.624C1039.54 227.821 1038.39 223.128 1036.09 219.544C1033.87 215.96 1030.71 214.168 1026.62 214.168C1022.61 214.168 1018.68 216.6 1014.84 221.464C1011 226.328 1008.31 231.832 1006.78 237.976L1007.16 265.752C1007.16 270.104 1005.54 272.28 1002.3 272.28C998.371 272.28 996.408 269.293 996.408 263.32C996.408 257.261 997.261 248.813 998.968 237.976C998.968 222.104 994.616 214.168 985.912 214.168C981.901 214.168 977.976 216.6 974.136 221.464C970.296 226.328 967.608 231.832 966.072 237.976L966.456 265.752C966.456 270.104 964.835 272.28 961.592 272.28C957.667 272.28 955.704 269.293 955.704 263.32C955.704 257.261 956.557 248.813 958.264 237.976C958.264 234.392 957.88 229.443 957.112 223.128C956.429 216.813 956.088 212.931 956.088 211.48C956.088 209.944 956.515 208.621 957.368 207.512C958.307 206.317 959.544 205.72 961.08 205.72C962.616 205.72 963.811 206.317 964.664 207.512C965.603 208.621 966.072 209.901 966.072 211.352C966.072 212.803 966.029 214.595 965.944 216.728C965.944 218.776 965.944 220.525 965.944 221.976C971.747 211.139 979 205.72 987.704 205.72C992.739 205.72 996.835 207.213 999.992 210.2C1003.23 213.101 1005.45 217.027 1006.65 221.976C1012.45 211.139 1019.7 205.72 1028.41 205.72C1034.81 205.72 1039.76 208.152 1043.26 213.016C1046.84 217.88 1048.63 223.768 1048.63 230.68ZM1185.53 230.296L1191.16 230.168C1193.04 230.168 1194.58 230.637 1195.77 231.576C1196.96 232.515 1197.56 233.709 1197.56 235.16C1197.56 238.403 1194.58 240.024 1188.6 240.024C1189.97 244.205 1190.95 247.277 1191.55 249.24C1192.23 251.203 1193.12 253.677 1194.23 256.664C1196.45 262.808 1197.56 266.477 1197.56 267.672C1197.56 268.867 1197.18 269.933 1196.41 270.872C1195.64 271.811 1194.58 272.28 1193.21 272.28C1190.74 272.28 1188.86 270.787 1187.58 267.8C1186.38 264.557 1184.89 260.035 1183.1 254.232C1181.39 248.429 1179.9 243.523 1178.62 239.512C1168.38 239.256 1161.25 239.128 1157.24 239.128C1153.23 239.128 1148.45 239.256 1142.91 239.512C1137.62 257.261 1134.8 266.605 1134.46 267.544C1133.26 270.701 1131.6 272.28 1129.47 272.28C1128.19 272.28 1127.16 271.853 1126.39 271C1125.63 270.147 1125.24 269.123 1125.24 267.928C1125.24 266.648 1125.63 264.728 1126.39 262.168C1127.16 259.523 1128.31 255.896 1129.85 251.288C1131.47 246.68 1132.75 242.84 1133.69 239.768H1131.39C1127.29 239.768 1125.24 238.189 1125.24 235.032C1125.24 231.875 1127.29 230.296 1131.39 230.296C1133.35 230.296 1135.1 230.339 1136.63 230.424C1136.89 229.741 1142.48 213.4 1153.4 181.4C1155.19 176.28 1157.67 173.72 1160.83 173.72C1162.96 173.72 1164.58 174.36 1165.69 175.64C1166.88 176.835 1167.87 178.413 1168.63 180.376C1169.4 182.253 1170.68 185.923 1172.47 191.384C1178.11 208.536 1182.46 221.507 1185.53 230.296ZM1145.72 230.68C1150.5 230.936 1155.58 231.064 1160.95 231.064C1166.42 231.064 1171.36 230.936 1175.8 230.68C1167.01 202.435 1162.11 188.312 1161.08 188.312C1159.89 188.312 1155.92 198.893 1149.18 220.056L1145.72 230.68ZM1221.45 241.688L1221.83 265.752C1221.83 270.104 1220.21 272.28 1216.97 272.28C1213.04 272.28 1211.08 269.293 1211.08 263.32C1211.08 257.261 1211.93 248.813 1213.64 237.976C1213.64 234.392 1213.26 229.485 1212.49 223.256C1211.8 217.027 1211.46 213.144 1211.46 211.608C1211.46 210.072 1211.89 208.707 1212.74 207.512C1213.68 206.317 1214.92 205.72 1216.46 205.72C1217.99 205.72 1219.19 206.317 1220.04 207.512C1220.98 208.707 1221.45 210.029 1221.45 211.48C1221.45 212.845 1221.4 214.637 1221.32 216.856C1221.32 218.989 1221.32 220.781 1221.32 222.232C1223.03 217.88 1225.67 214.04 1229.26 210.712C1232.92 207.384 1236.68 205.72 1240.52 205.72C1244.36 205.72 1247.3 206.531 1249.35 208.152C1251.48 209.688 1252.55 211.352 1252.55 213.144C1252.55 214.936 1252.08 216.344 1251.14 217.368C1250.2 218.392 1248.97 218.904 1247.43 218.904C1245.98 218.904 1244.36 218.136 1242.57 216.6C1240.86 214.979 1239.5 214.168 1238.47 214.168C1235.66 214.168 1232.37 217.197 1228.62 223.256C1224.86 229.315 1222.47 235.459 1221.45 241.688ZM1291.49 263.96C1296.95 263.96 1301.73 261.443 1305.83 256.408C1310.01 251.373 1312.1 245.485 1312.1 238.744C1312.1 231.917 1310.6 226.115 1307.62 221.336C1304.63 216.472 1300.58 214.04 1295.46 214.04C1286.5 214.04 1279.12 221.421 1273.31 236.184V256.536C1278.43 261.485 1284.49 263.96 1291.49 263.96ZM1265.38 246.68L1265.51 241.816V239.768C1265.51 236.184 1265.12 230.936 1264.35 224.024C1263.59 217.112 1263.2 212.931 1263.2 211.48C1263.2 209.944 1263.63 208.621 1264.48 207.512C1265.42 206.317 1266.66 205.72 1268.19 205.72C1269.73 205.72 1270.92 206.317 1271.78 207.512C1272.72 208.621 1273.19 209.901 1273.19 211.352C1273.19 212.803 1273.14 214.637 1273.06 216.856C1273.06 218.989 1273.06 220.781 1273.06 222.232C1275.87 217.027 1279.03 212.973 1282.53 210.072C1286.03 207.171 1290.55 205.72 1296.1 205.72C1301.64 205.72 1306.42 207.512 1310.43 211.096C1314.44 214.68 1317.3 218.819 1319.01 223.512C1320.72 228.205 1321.57 232.899 1321.57 237.592C1321.57 246.893 1318.75 255 1313.12 261.912C1307.49 268.824 1300.28 272.28 1291.49 272.28C1285.09 272.28 1279.03 270.189 1273.31 266.008C1273.14 276.333 1273.06 283.971 1273.06 288.92C1273.06 293.955 1272.63 297.112 1271.78 298.392C1270.92 299.757 1269.6 300.44 1267.81 300.44C1266.02 300.44 1264.52 299.672 1263.33 298.136C1262.22 296.685 1261.67 294.552 1261.67 291.736C1261.67 288.92 1261.84 285.549 1262.18 281.624C1262.52 277.784 1263.03 272.707 1263.71 266.392C1264.4 259.992 1264.95 254.232 1265.38 249.112V246.68ZM1387.4 240.024C1387.4 246.424 1387.87 251.672 1388.81 255.768C1389.75 259.779 1390.86 262.04 1392.14 262.552C1392.65 262.808 1393.25 262.979 1393.93 263.064C1394.7 263.149 1395.21 263.277 1395.47 263.448C1395.81 263.619 1395.98 263.96 1395.98 264.472C1395.98 266.776 1395.34 268.653 1394.06 270.104C1392.86 271.555 1391.03 272.28 1388.55 272.28C1386.08 272.28 1384.16 270.701 1382.79 267.544C1381.43 264.387 1380.75 260.333 1380.75 255.384C1378.61 260.163 1375.45 264.173 1371.27 267.416C1367.18 270.659 1362.53 272.28 1357.32 272.28C1352.2 272.28 1347.76 270.573 1344.01 267.16C1337.18 260.931 1333.77 252.013 1333.77 240.408C1333.77 231.107 1336.46 223 1341.83 216.088C1347.21 209.176 1354.12 205.72 1362.57 205.72C1368.97 205.72 1374.52 207.896 1379.21 212.248C1379.21 207.896 1380.83 205.72 1384.07 205.72C1388 205.72 1389.96 208.749 1389.96 214.808C1389.96 220.781 1389.11 229.187 1387.4 240.024ZM1379.98 241.176L1379.34 221.464C1374.22 216.515 1368.84 214.04 1363.21 214.04C1357.66 214.04 1352.88 216.557 1348.87 221.592C1344.86 226.627 1342.86 232.685 1342.86 239.768C1342.86 246.765 1344.14 252.568 1346.7 257.176C1349.34 261.699 1353.05 263.96 1357.83 263.96C1362.61 263.96 1366.96 261.827 1370.89 257.56C1374.81 253.293 1377.84 247.832 1379.98 241.176ZM1464.24 230.68L1463.6 250.776C1463.6 253.165 1463.6 255 1463.6 256.28C1463.68 257.475 1463.94 258.755 1464.37 260.12C1464.88 261.4 1465.48 262.211 1466.16 262.552C1466.84 262.808 1467.52 262.979 1468.21 263.064C1468.97 263.149 1469.49 263.277 1469.74 263.448C1470.08 263.619 1470.25 263.96 1470.25 264.472C1470.25 266.691 1469.53 268.568 1468.08 270.104C1466.71 271.555 1465.09 272.28 1463.21 272.28C1459.97 272.28 1457.71 271 1456.43 268.44C1455.24 265.88 1454.64 262.125 1454.64 257.176L1455.15 233.624C1455.15 227.821 1453.91 223.128 1451.44 219.544C1448.96 215.96 1445.51 214.168 1441.07 214.168C1436.72 214.168 1432.49 216.6 1428.4 221.464C1424.3 226.328 1421.44 231.832 1419.82 237.976L1420.21 265.752C1420.21 270.104 1418.58 272.28 1415.34 272.28C1411.42 272.28 1409.45 269.293 1409.45 263.32C1409.45 257.261 1410.31 248.813 1412.01 237.976C1412.01 234.392 1411.63 229.443 1410.86 223.128C1410.18 216.813 1409.84 212.931 1409.84 211.48C1409.84 209.944 1410.26 208.621 1411.12 207.512C1412.06 206.317 1413.29 205.72 1414.83 205.72C1416.37 205.72 1417.56 206.317 1418.41 207.512C1419.35 208.621 1419.82 209.901 1419.82 211.352C1419.82 212.803 1419.78 214.595 1419.69 216.728C1419.69 218.776 1419.69 220.525 1419.69 221.976C1425.92 211.139 1433.6 205.72 1442.73 205.72C1449.56 205.72 1454.85 208.152 1458.61 213.016C1462.36 217.88 1464.24 223.768 1464.24 230.68Z" fill="#FD5B80"/>
<path d="M737.836 371.92C737.836 373.285 736.3 374.8 733.228 376.464C730.199 378.128 726.636 378.96 722.54 378.96C716.567 378.96 711.618 376.549 707.692 371.728C703.767 366.864 701.804 360.955 701.804 354C701.804 347.003 703.788 341.093 707.756 336.272C711.724 331.451 716.695 329.04 722.668 329.04C726.21 329.04 729.388 329.701 732.204 331.024C735.02 332.347 736.428 333.84 736.428 335.504C736.428 336.187 736.215 336.72 735.788 337.104C735.404 337.488 734.85 337.68 734.124 337.68C733.442 337.68 732.61 337.339 731.628 336.656C730.69 335.973 729.474 335.291 727.98 334.608C726.53 333.883 724.759 333.52 722.668 333.52C718.103 333.52 714.348 335.547 711.404 339.6C708.46 343.611 706.988 348.368 706.988 353.872C706.988 359.333 708.46 364.133 711.404 368.272C714.348 372.411 718.082 374.48 722.604 374.48C724.695 374.48 726.572 374.267 728.236 373.84C729.943 373.371 731.223 372.88 732.076 372.368C732.93 371.856 733.719 371.387 734.444 370.96C735.17 370.491 735.724 370.256 736.108 370.256C737.26 370.256 737.836 370.811 737.836 371.92ZM765 371.024C767.091 368.507 768.136 365.477 768.136 361.936C768.136 358.395 767.134 355.387 765.128 352.912C763.166 350.437 760.712 349.2 757.768 349.2C754.824 349.2 752.307 350.459 750.216 352.976C748.168 355.493 747.144 358.523 747.144 362.064C747.144 365.605 748.126 368.613 750.088 371.088C752.094 373.563 754.568 374.8 757.512 374.8C760.456 374.8 762.952 373.541 765 371.024ZM757.64 345.04C762.035 345.04 765.64 346.683 768.456 349.968C771.272 353.211 772.68 357.2 772.68 361.936C772.68 366.672 771.251 370.704 768.392 374.032C765.534 377.317 761.928 378.96 757.576 378.96C753.224 378.96 749.64 377.339 746.824 374.096C744.008 370.811 742.6 366.8 742.6 362.064C742.6 357.328 744.008 353.317 746.824 350.032C749.683 346.704 753.288 345.04 757.64 345.04ZM826.41 357.84L826.09 367.888C826.09 369.083 826.09 370 826.09 370.64C826.132 371.237 826.26 371.877 826.474 372.56C826.73 373.2 827.028 373.605 827.37 373.776C827.711 373.904 828.052 373.989 828.394 374.032C828.778 374.075 829.034 374.139 829.162 374.224C829.332 374.309 829.418 374.48 829.418 374.736C829.418 375.845 829.055 376.784 828.33 377.552C827.647 378.277 826.836 378.64 825.898 378.64C824.276 378.64 823.146 378 822.506 376.72C821.908 375.44 821.61 373.563 821.61 371.088L821.866 359.312C821.866 356.411 821.29 354.064 820.138 352.272C819.028 350.48 817.45 349.584 815.402 349.584C813.396 349.584 811.434 350.8 809.514 353.232C807.594 355.664 806.25 358.416 805.482 361.488L805.674 375.376C805.674 377.552 804.863 378.64 803.242 378.64C801.279 378.64 800.298 377.147 800.298 374.16C800.298 371.131 800.724 366.907 801.578 361.488C801.578 353.552 799.402 349.584 795.05 349.584C793.044 349.584 791.082 350.8 789.162 353.232C787.242 355.664 785.898 358.416 785.13 361.488L785.322 375.376C785.322 377.552 784.511 378.64 782.89 378.64C780.927 378.64 779.946 377.147 779.946 374.16C779.946 371.131 780.372 366.907 781.226 361.488C781.226 359.696 781.034 357.221 780.65 354.064C780.308 350.907 780.138 348.965 780.138 348.24C780.138 347.472 780.351 346.811 780.778 346.256C781.247 345.659 781.866 345.36 782.634 345.36C783.402 345.36 783.999 345.659 784.426 346.256C784.895 346.811 785.13 347.451 785.13 348.176C785.13 348.901 785.108 349.797 785.066 350.864C785.066 351.888 785.066 352.763 785.066 353.488C787.967 348.069 791.594 345.36 795.946 345.36C798.463 345.36 800.511 346.107 802.09 347.6C803.711 349.051 804.82 351.013 805.418 353.488C808.319 348.069 811.946 345.36 816.298 345.36C819.498 345.36 821.972 346.576 823.722 349.008C825.514 351.44 826.41 354.384 826.41 357.84ZM850.151 374.48C852.881 374.48 855.271 373.221 857.319 370.704C859.409 368.187 860.455 365.243 860.455 361.872C860.455 358.459 859.708 355.557 858.215 353.168C856.721 350.736 854.695 349.52 852.135 349.52C847.655 349.52 843.964 353.211 841.063 360.592V370.768C843.623 373.243 846.652 374.48 850.151 374.48ZM837.095 365.84L837.159 363.408V362.384C837.159 360.592 836.967 357.968 836.583 354.512C836.199 351.056 836.007 348.965 836.007 348.24C836.007 347.472 836.22 346.811 836.647 346.256C837.116 345.659 837.735 345.36 838.503 345.36C839.271 345.36 839.868 345.659 840.295 346.256C840.764 346.811 840.999 347.451 840.999 348.176C840.999 348.901 840.977 349.819 840.935 350.928C840.935 351.995 840.935 352.891 840.935 353.616C842.343 351.013 843.921 348.987 845.671 347.536C847.42 346.085 849.681 345.36 852.455 345.36C855.228 345.36 857.617 346.256 859.623 348.048C861.628 349.84 863.057 351.909 863.911 354.256C864.764 356.603 865.191 358.949 865.191 361.296C865.191 365.947 863.783 370 860.967 373.456C858.151 376.912 854.545 378.64 850.151 378.64C846.951 378.64 843.921 377.595 841.063 375.504C840.977 380.667 840.935 384.485 840.935 386.96C840.935 389.477 840.721 391.056 840.295 391.696C839.868 392.379 839.207 392.72 838.311 392.72C837.415 392.72 836.668 392.336 836.071 391.568C835.516 390.843 835.239 389.776 835.239 388.368C835.239 386.96 835.324 385.275 835.495 383.312C835.665 381.392 835.921 378.853 836.263 375.696C836.604 372.496 836.881 369.616 837.095 367.056V365.84ZM877.883 350.608L877.371 364.688C877.371 367.589 877.989 369.957 879.227 371.792C880.464 373.584 882.171 374.48 884.347 374.48C886.565 374.48 888.699 373.264 890.747 370.832C892.795 368.357 894.224 365.584 895.035 362.512L894.843 348.624C894.843 346.448 895.653 345.36 897.275 345.36C899.237 345.36 900.219 346.875 900.219 349.904C900.219 352.891 899.792 357.093 898.939 362.512C898.939 365.712 899.173 368.336 899.643 370.384C900.112 372.389 900.667 373.52 901.307 373.776C901.563 373.904 901.861 373.989 902.203 374.032C902.587 374.075 902.843 374.139 902.971 374.224C903.141 374.309 903.227 374.48 903.227 374.736C903.227 375.888 902.864 376.827 902.139 377.552C901.456 378.277 900.581 378.64 899.515 378.64C896.827 378.64 895.483 375.909 895.483 370.448C892.325 375.909 888.357 378.64 883.579 378.64C880.165 378.64 877.52 377.381 875.643 374.864C873.765 372.304 872.827 369.189 872.827 365.52L873.211 355.856C873.211 354.149 873.04 352.571 872.699 351.12C872.357 349.627 872.187 348.56 872.187 347.92C872.187 347.28 872.443 346.704 872.955 346.192C873.467 345.637 874.128 345.36 874.939 345.36C876.901 345.36 877.883 347.109 877.883 350.608ZM917.306 349.904L917.178 365.072C917.178 368.955 917.327 371.493 917.626 372.688C917.967 373.883 918.82 374.48 920.186 374.48C920.826 374.48 921.594 374.267 922.49 373.84C923.428 373.371 924.047 373.136 924.346 373.136C925.242 373.136 925.69 373.584 925.69 374.48C925.69 375.333 924.9 376.251 923.322 377.232C921.743 378.171 920.186 378.64 918.65 378.64C914.938 378.64 913.082 375.909 913.082 370.448L913.018 349.904C911.61 350.032 910.628 350.096 910.074 350.096C907.94 350.096 906.874 349.392 906.874 347.984C906.874 346.576 907.94 345.872 910.074 345.872C910.244 345.872 911.183 345.915 912.89 346L912.762 338.832C912.762 336.699 913.572 335.632 915.194 335.632C916.815 335.632 917.626 336.699 917.626 338.832L917.434 346.064L922.618 345.808C924.751 345.808 925.818 346.533 925.818 347.984C925.818 349.349 924.751 350.032 922.618 350.032C922.234 350.032 920.463 349.989 917.306 349.904ZM943.749 360.784C946.65 360.784 948.954 360.293 950.661 359.312C952.41 358.331 953.285 357.008 953.285 355.344C953.285 353.68 952.709 352.251 951.557 351.056C950.447 349.819 948.847 349.2 946.757 349.2C943.941 349.2 941.573 350.267 939.653 352.4C937.733 354.491 936.495 356.944 935.941 359.76C938.287 360.443 940.89 360.784 943.749 360.784ZM946.181 345.04C949.637 345.04 952.431 346 954.565 347.92C956.741 349.84 957.829 352.336 957.829 355.408C957.829 358.48 956.485 360.827 953.797 362.448C951.151 364.027 947.887 364.816 944.005 364.816C941.786 364.816 939.077 364.496 935.877 363.856C936.133 366.843 937.242 369.424 939.205 371.6C941.21 373.733 943.429 374.8 945.861 374.8C947.311 374.8 948.655 374.608 949.893 374.224C951.13 373.797 952.069 373.349 952.709 372.88C954.415 371.557 955.525 370.896 956.037 370.896C956.591 370.896 957.018 371.067 957.317 371.408C957.658 371.707 957.829 372.091 957.829 372.56C957.829 373.755 956.591 375.12 954.117 376.656C951.685 378.192 949.039 378.96 946.181 378.96C941.743 378.96 938.223 377.403 935.621 374.288C933.018 371.173 931.61 367.419 931.397 363.024C929.135 362.341 928.005 361.232 928.005 359.696C928.005 359.056 928.175 358.565 928.517 358.224C928.901 357.84 929.349 357.648 929.861 357.648C930.373 357.648 931.013 357.84 931.781 358.224C932.719 354.384 934.49 351.227 937.093 348.752C939.738 346.277 942.767 345.04 946.181 345.04ZM970.505 363.344L970.697 375.376C970.697 377.552 969.886 378.64 968.265 378.64C966.302 378.64 965.321 377.147 965.321 374.16C965.321 371.131 965.747 366.907 966.601 361.488C966.601 359.696 966.409 357.243 966.025 354.128C965.683 351.013 965.513 349.072 965.513 348.304C965.513 347.536 965.726 346.853 966.153 346.256C966.622 345.659 967.241 345.36 968.009 345.36C968.777 345.36 969.374 345.659 969.801 346.256C970.27 346.853 970.505 347.515 970.505 348.24C970.505 348.923 970.483 349.819 970.441 350.928C970.441 351.995 970.441 352.891 970.441 353.616C971.294 351.44 972.617 349.52 974.409 347.856C976.243 346.192 978.121 345.36 980.041 345.36C981.961 345.36 983.433 345.765 984.457 346.576C985.523 347.344 986.057 348.176 986.057 349.072C986.057 349.968 985.822 350.672 985.353 351.184C984.883 351.696 984.265 351.952 983.497 351.952C982.771 351.952 981.961 351.568 981.065 350.8C980.211 349.989 979.529 349.584 979.017 349.584C977.609 349.584 975.966 351.099 974.089 354.128C972.211 357.157 971.017 360.229 970.505 363.344ZM1023.4 373.776L1033.77 373.456C1035.9 373.456 1036.97 374.267 1036.97 375.888C1036.97 377.509 1035.9 378.32 1033.77 378.32L1023.4 378C1023.4 378 1019.67 378.107 1012.2 378.32C1010.28 378.32 1009.32 377.509 1009.32 375.888C1009.32 374.395 1009.36 371.877 1009.45 368.336C1009.58 364.795 1009.64 360.272 1009.64 354.768C1009.26 354.811 1008.83 354.832 1008.36 354.832C1006.31 354.832 1005.29 354.043 1005.29 352.464C1005.29 351.739 1005.57 351.141 1006.12 350.672C1006.67 350.203 1007.29 349.968 1007.98 349.968C1008.7 349.968 1009.26 349.989 1009.64 350.032C1009.55 341.456 1009.41 336.272 1009.19 334.48C1008.68 333.755 1008.42 332.965 1008.42 332.112C1008.42 330.491 1009.55 329.68 1011.82 329.68L1024.17 330L1033.77 329.68C1035.9 329.68 1036.97 330.491 1036.97 332.112C1036.97 333.733 1035.9 334.544 1033.77 334.544L1024.17 334.224C1019.3 334.224 1016.1 334.309 1014.57 334.48C1014.35 340.069 1014.25 345.296 1014.25 350.16C1016.13 350.245 1017.62 350.288 1018.73 350.288L1030.25 349.968C1031.23 349.968 1032 350.203 1032.55 350.672C1033.15 351.099 1033.45 351.696 1033.45 352.464C1033.45 354.043 1032.38 354.832 1030.25 354.832L1018.73 354.512C1017.53 354.512 1016.04 354.555 1014.25 354.64V360.976C1014.25 367.333 1014.35 371.515 1014.57 373.52C1017.55 373.691 1020.5 373.776 1023.4 373.776ZM1071.34 357.84L1071.02 367.888C1071.02 369.083 1071.02 370 1071.02 370.64C1071.06 371.237 1071.19 371.877 1071.4 372.56C1071.66 373.2 1071.96 373.605 1072.3 373.776C1072.64 373.904 1072.98 373.989 1073.32 374.032C1073.71 374.075 1073.96 374.139 1074.09 374.224C1074.26 374.309 1074.35 374.48 1074.35 374.736C1074.35 375.845 1073.98 376.784 1073.26 377.552C1072.58 378.277 1071.76 378.64 1070.83 378.64C1069.2 378.64 1068.07 378 1067.43 376.72C1066.84 375.44 1066.54 373.563 1066.54 371.088L1066.79 359.312C1066.79 356.411 1066.18 354.064 1064.94 352.272C1063.7 350.48 1061.97 349.584 1059.75 349.584C1057.58 349.584 1055.47 350.8 1053.42 353.232C1051.37 355.664 1049.94 358.416 1049.13 361.488L1049.32 375.376C1049.32 377.552 1048.51 378.64 1046.89 378.64C1044.93 378.64 1043.95 377.147 1043.95 374.16C1043.95 371.131 1044.37 366.907 1045.23 361.488C1045.23 359.696 1045.03 357.221 1044.65 354.064C1044.31 350.907 1044.14 348.965 1044.14 348.24C1044.14 347.472 1044.35 346.811 1044.78 346.256C1045.25 345.659 1045.87 345.36 1046.63 345.36C1047.4 345.36 1048 345.659 1048.43 346.256C1048.9 346.811 1049.13 347.451 1049.13 348.176C1049.13 348.901 1049.11 349.797 1049.07 350.864C1049.07 351.888 1049.07 352.763 1049.07 353.488C1052.18 348.069 1056.02 345.36 1060.59 345.36C1064 345.36 1066.64 346.576 1068.52 349.008C1070.4 351.44 1071.34 354.384 1071.34 357.84ZM1102.77 363.024V353.232C1100.42 350.757 1097.82 349.52 1094.96 349.52C1092.14 349.52 1089.67 350.8 1087.54 353.36C1085.45 355.877 1084.4 358.885 1084.4 362.384C1084.4 365.84 1085.06 368.72 1086.38 371.024C1087.71 373.328 1089.52 374.48 1091.82 374.48C1094.17 374.48 1096.33 373.392 1098.29 371.216C1100.25 369.04 1101.74 366.309 1102.77 363.024ZM1102.64 348.368C1102.73 346.363 1103.54 345.36 1105.07 345.36C1107.03 345.36 1108.02 346.875 1108.02 349.904C1108.02 352.891 1107.59 357.093 1106.74 362.512C1107.25 367.717 1107.5 371.6 1107.5 374.16C1107.5 379.749 1106.18 384.229 1103.54 387.6C1100.93 391.013 1097.26 392.72 1092.53 392.72C1089.88 392.72 1087.39 392.165 1085.04 391.056C1082.69 389.989 1081.52 388.901 1081.52 387.792C1081.52 386.725 1082.01 386.192 1082.99 386.192C1083.38 386.192 1084.46 386.576 1086.26 387.344C1088.09 388.155 1090.18 388.56 1092.53 388.56C1095.94 388.56 1098.63 387.28 1100.59 384.72C1102.55 382.16 1103.54 378.853 1103.54 374.8C1103.54 373.136 1103.43 371.6 1103.22 370.192C1102.28 372.496 1100.74 374.48 1098.61 376.144C1096.52 377.808 1094.34 378.64 1092.08 378.64C1089.86 378.64 1087.96 378.149 1086.38 377.168C1084.81 376.187 1083.53 374.907 1082.54 373.328C1080.62 370.128 1079.66 366.416 1079.66 362.192C1079.66 357.925 1081.09 354.064 1083.95 350.608C1086.85 347.109 1090.42 345.36 1094.64 345.36C1097.58 345.36 1100.25 346.363 1102.64 348.368ZM1119.83 331.6C1120.73 331.6 1121.39 331.899 1121.82 332.496C1122.24 333.051 1122.46 333.776 1122.46 334.672C1122.46 335.525 1122.16 336.4 1121.56 337.296C1120.96 338.149 1120.22 338.576 1119.32 338.576C1118.42 338.576 1117.74 338.277 1117.27 337.68C1116.85 337.083 1116.63 336.293 1116.63 335.312C1116.63 334.331 1116.93 333.477 1117.53 332.752C1118.17 331.984 1118.94 331.6 1119.83 331.6ZM1121.62 362L1121.94 375.44C1121.94 377.573 1121.13 378.64 1119.51 378.64C1117.89 378.64 1117.08 377.573 1117.08 375.44L1117.4 362L1117.08 348.56C1117.08 346.427 1117.89 345.36 1119.51 345.36C1121.13 345.36 1121.94 346.427 1121.94 348.56L1121.62 362ZM1158.4 357.84L1158.08 367.888C1158.08 369.083 1158.08 370 1158.08 370.64C1158.12 371.237 1158.25 371.877 1158.46 372.56C1158.72 373.2 1159.02 373.605 1159.36 373.776C1159.7 373.904 1160.04 373.989 1160.38 374.032C1160.77 374.075 1161.02 374.139 1161.15 374.224C1161.32 374.309 1161.41 374.48 1161.41 374.736C1161.41 375.845 1161.05 376.784 1160.32 377.552C1159.64 378.277 1158.83 378.64 1157.89 378.64C1156.27 378.64 1155.14 378 1154.5 376.72C1153.9 375.44 1153.6 373.563 1153.6 371.088L1153.86 359.312C1153.86 356.411 1153.24 354.064 1152 352.272C1150.76 350.48 1149.03 349.584 1146.82 349.584C1144.64 349.584 1142.53 350.8 1140.48 353.232C1138.43 355.664 1137 358.416 1136.19 361.488L1136.38 375.376C1136.38 377.552 1135.57 378.64 1133.95 378.64C1131.99 378.64 1131.01 377.147 1131.01 374.16C1131.01 371.131 1131.43 366.907 1132.29 361.488C1132.29 359.696 1132.1 357.221 1131.71 354.064C1131.37 350.907 1131.2 348.965 1131.2 348.24C1131.2 347.472 1131.41 346.811 1131.84 346.256C1132.31 345.659 1132.93 345.36 1133.7 345.36C1134.46 345.36 1135.06 345.659 1135.49 346.256C1135.96 346.811 1136.19 347.451 1136.19 348.176C1136.19 348.901 1136.17 349.797 1136.13 350.864C1136.13 351.888 1136.13 352.763 1136.13 353.488C1139.24 348.069 1143.08 345.36 1147.65 345.36C1151.06 345.36 1153.71 346.576 1155.58 349.008C1157.46 351.44 1158.4 354.384 1158.4 357.84ZM1181 360.784C1183.9 360.784 1186.2 360.293 1187.91 359.312C1189.66 358.331 1190.53 357.008 1190.53 355.344C1190.53 353.68 1189.96 352.251 1188.81 351.056C1187.7 349.819 1186.1 349.2 1184.01 349.2C1181.19 349.2 1178.82 350.267 1176.9 352.4C1174.98 354.491 1173.75 356.944 1173.19 359.76C1175.54 360.443 1178.14 360.784 1181 360.784ZM1183.43 345.04C1186.89 345.04 1189.68 346 1191.81 347.92C1193.99 349.84 1195.08 352.336 1195.08 355.408C1195.08 358.48 1193.73 360.827 1191.05 362.448C1188.4 364.027 1185.14 364.816 1181.25 364.816C1179.04 364.816 1176.33 364.496 1173.13 363.856C1173.38 366.843 1174.49 369.424 1176.45 371.6C1178.46 373.733 1180.68 374.8 1183.11 374.8C1184.56 374.8 1185.91 374.608 1187.14 374.224C1188.38 373.797 1189.32 373.349 1189.96 372.88C1191.67 371.557 1192.77 370.896 1193.29 370.896C1193.84 370.896 1194.27 371.067 1194.57 371.408C1194.91 371.707 1195.08 372.091 1195.08 372.56C1195.08 373.755 1193.84 375.12 1191.37 376.656C1188.93 378.192 1186.29 378.96 1183.43 378.96C1178.99 378.96 1175.47 377.403 1172.87 374.288C1170.27 371.173 1168.86 367.419 1168.65 363.024C1166.39 362.341 1165.25 361.232 1165.25 359.696C1165.25 359.056 1165.43 358.565 1165.77 358.224C1166.15 357.84 1166.6 357.648 1167.11 357.648C1167.62 357.648 1168.26 357.84 1169.03 358.224C1169.97 354.384 1171.74 351.227 1174.34 348.752C1176.99 346.277 1180.02 345.04 1183.43 345.04ZM1215.5 360.784C1218.4 360.784 1220.7 360.293 1222.41 359.312C1224.16 358.331 1225.03 357.008 1225.03 355.344C1225.03 353.68 1224.46 352.251 1223.31 351.056C1222.2 349.819 1220.6 349.2 1218.51 349.2C1215.69 349.2 1213.32 350.267 1211.4 352.4C1209.48 354.491 1208.25 356.944 1207.69 359.76C1210.04 360.443 1212.64 360.784 1215.5 360.784ZM1217.93 345.04C1221.39 345.04 1224.18 346 1226.31 347.92C1228.49 349.84 1229.58 352.336 1229.58 355.408C1229.58 358.48 1228.23 360.827 1225.55 362.448C1222.9 364.027 1219.64 364.816 1215.75 364.816C1213.54 364.816 1210.83 364.496 1207.63 363.856C1207.88 366.843 1208.99 369.424 1210.95 371.6C1212.96 373.733 1215.18 374.8 1217.61 374.8C1219.06 374.8 1220.41 374.608 1221.64 374.224C1222.88 373.797 1223.82 373.349 1224.46 372.88C1226.17 371.557 1227.27 370.896 1227.79 370.896C1228.34 370.896 1228.77 371.067 1229.07 371.408C1229.41 371.707 1229.58 372.091 1229.58 372.56C1229.58 373.755 1228.34 375.12 1225.87 376.656C1223.43 378.192 1220.79 378.96 1217.93 378.96C1213.49 378.96 1209.97 377.403 1207.37 374.288C1204.77 371.173 1203.36 367.419 1203.15 363.024C1200.89 362.341 1199.75 361.232 1199.75 359.696C1199.75 359.056 1199.93 358.565 1200.27 358.224C1200.65 357.84 1201.1 357.648 1201.61 357.648C1202.12 357.648 1202.76 357.84 1203.53 358.224C1204.47 354.384 1206.24 351.227 1208.84 348.752C1211.49 346.277 1214.52 345.04 1217.93 345.04ZM1242.25 363.344L1242.45 375.376C1242.45 377.552 1241.64 378.64 1240.01 378.64C1238.05 378.64 1237.07 377.147 1237.07 374.16C1237.07 371.131 1237.5 366.907 1238.35 361.488C1238.35 359.696 1238.16 357.243 1237.77 354.128C1237.43 351.013 1237.26 349.072 1237.26 348.304C1237.26 347.536 1237.48 346.853 1237.9 346.256C1238.37 345.659 1238.99 345.36 1239.76 345.36C1240.53 345.36 1241.12 345.659 1241.55 346.256C1242.02 346.853 1242.25 347.515 1242.25 348.24C1242.25 348.923 1242.23 349.819 1242.19 350.928C1242.19 351.995 1242.19 352.891 1242.19 353.616C1243.04 351.44 1244.37 349.52 1246.16 347.856C1247.99 346.192 1249.87 345.36 1251.79 345.36C1253.71 345.36 1255.18 345.765 1256.21 346.576C1257.27 347.344 1257.81 348.176 1257.81 349.072C1257.81 349.968 1257.57 350.672 1257.1 351.184C1256.63 351.696 1256.01 351.952 1255.25 351.952C1254.52 351.952 1253.71 351.568 1252.81 350.8C1251.96 349.989 1251.28 349.584 1250.77 349.584C1249.36 349.584 1247.72 351.099 1245.84 354.128C1243.96 357.157 1242.77 360.229 1242.25 363.344Z" fill="#6A25F4"/>
</g>
<defs>
<filter id="filter0_d_309_107" x="0" y="0" width="1676" height="547" filterUnits="userSpaceOnUse" color-interpolation-filters="sRGB">
<feFlood flood-opacity="0" result="BackgroundImageFix"/>
<feColorMatrix in="SourceAlpha" type="matrix" values="0 0 0 0 0 0 0 0 0 0 0 0 0 0 0 0 0 0 127 0" result="hardAlpha"/>
<feOffset dy="4"/>
<feGaussianBlur stdDeviation="25"/>
<feComposite in2="hardAlpha" operator="out"/>
<feColorMatrix type="matrix" values="0 0 0 0 0 0 0 0 0 0 0 0 0 0 0 0 0 0 0.25 0"/>
<feBlend mode="normal" in2="BackgroundImageFix" result="effect1_dropShadow_309_107"/>
<feBlend mode="normal" in="SourceGraphic" in2="effect1_dropShadow_309_107" result="shape"/>
</filter>
</defs>
</svg>
